<mxfile host="65bd71144e">
    <diagram name="Page-1" id="o5wU8o0QdgYHixadXI1X">
        <mxGraphModel dx="833" dy="792" grid="1" gridSize="10" guides="1" tooltips="1" connect="1" arrows="1" fold="1" page="0" pageScale="1" pageWidth="827" pageHeight="1169" math="0" shadow="0">
            <root>
                <mxCell id="0"/>
                <mxCell id="1" parent="0"/>
                <mxCell id="2CYpo4eM78xcHVAUHPCl-1" value="Local Environment" style="fillColor=none;strokeColor=#5A6C86;dashed=1;verticalAlign=top;fontStyle=0;fontColor=#5A6C86;whiteSpace=wrap;html=1;" parent="1" vertex="1">
                    <mxGeometry x="180" y="10" width="200" height="230" as="geometry"/>
                </mxCell>
                <mxCell id="2CYpo4eM78xcHVAUHPCl-4" value="ElasticSearch" style="shape=image;verticalLabelPosition=bottom;labelBackgroundColor=default;verticalAlign=top;aspect=fixed;imageAspect=0;image=https://plugins.jetbrains.com/files/16111/151977/icon/pluginIcon.png;" parent="1" vertex="1">
                    <mxGeometry x="292" y="140" width="70" height="70" as="geometry"/>
                </mxCell>
                <mxCell id="2CYpo4eM78xcHVAUHPCl-6" style="edgeStyle=orthogonalEdgeStyle;rounded=0;orthogonalLoop=1;jettySize=auto;html=1;exitX=0.5;exitY=1;exitDx=0;exitDy=0;" parent="1" source="2CYpo4eM78xcHVAUHPCl-5" target="2CYpo4eM78xcHVAUHPCl-4" edge="1">
                    <mxGeometry relative="1" as="geometry"/>
                </mxCell>
                <mxCell id="2CYpo4eM78xcHVAUHPCl-5" value="Flask App" style="shape=image;verticalLabelPosition=bottom;labelBackgroundColor=default;verticalAlign=top;aspect=fixed;imageAspect=0;image=https://flask.palletsprojects.com/en/3.0.x/_images/flask-horizontal.png;clipPath=inset(0% 67% 0% 0%);" parent="1" vertex="1">
                    <mxGeometry x="302.48" y="40" width="48.52" height="47.54" as="geometry"/>
                </mxCell>
                <mxCell id="2CYpo4eM78xcHVAUHPCl-8" value=".env" style="verticalLabelPosition=bottom;html=1;verticalAlign=top;align=center;strokeColor=none;fillColor=#00BEF2;shape=mxgraph.azure.code_file;pointerEvents=1;" parent="1" vertex="1">
                    <mxGeometry x="190" y="110" width="47.5" height="50" as="geometry"/>
                </mxCell>
                <mxCell id="2CYpo4eM78xcHVAUHPCl-9" style="edgeStyle=orthogonalEdgeStyle;rounded=0;orthogonalLoop=1;jettySize=auto;html=1;entryX=1;entryY=0.5;entryDx=0;entryDy=0;entryPerimeter=0;fillColor=#f5f5f5;strokeColor=#666666;exitX=0;exitY=0.5;exitDx=0;exitDy=0;" parent="1" source="2CYpo4eM78xcHVAUHPCl-4" target="2CYpo4eM78xcHVAUHPCl-8" edge="1">
                    <mxGeometry relative="1" as="geometry">
                        <Array as="points">
                            <mxPoint x="260" y="175"/>
                            <mxPoint x="260" y="135"/>
                        </Array>
                    </mxGeometry>
                </mxCell>
                <mxCell id="2CYpo4eM78xcHVAUHPCl-10" style="edgeStyle=orthogonalEdgeStyle;rounded=0;orthogonalLoop=1;jettySize=auto;html=1;entryX=1;entryY=0.5;entryDx=0;entryDy=0;entryPerimeter=0;fillColor=#f5f5f5;strokeColor=#666666;" parent="1" source="2CYpo4eM78xcHVAUHPCl-5" target="2CYpo4eM78xcHVAUHPCl-8" edge="1">
                    <mxGeometry relative="1" as="geometry">
                        <mxPoint x="339.04999999999995" y="100" as="sourcePoint"/>
                        <mxPoint x="380" y="145" as="targetPoint"/>
                        <Array as="points">
                            <mxPoint x="260" y="70"/>
                            <mxPoint x="260" y="135"/>
                        </Array>
                    </mxGeometry>
                </mxCell>
                <mxCell id="2CYpo4eM78xcHVAUHPCl-17" value="Azure OpenAI" style="fillColor=none;strokeColor=#5A6C86;dashed=1;verticalAlign=top;fontStyle=0;fontColor=#5A6C86;whiteSpace=wrap;html=1;" parent="1" vertex="1">
                    <mxGeometry x="676" y="53.25" width="310" height="120" as="geometry"/>
                </mxCell>
                <mxCell id="2CYpo4eM78xcHVAUHPCl-18" value="Azure OpenAI" style="image;aspect=fixed;html=1;points=[];align=center;fontSize=12;image=img/lib/azure2/ai_machine_learning/Cognitive_Services.svg;" parent="1" vertex="1">
                    <mxGeometry x="696" y="89.25" width="68" height="48" as="geometry"/>
                </mxCell>
                <mxCell id="2CYpo4eM78xcHVAUHPCl-19" style="edgeStyle=orthogonalEdgeStyle;rounded=0;orthogonalLoop=1;jettySize=auto;html=1;entryX=0;entryY=0;entryDx=0;entryDy=15;entryPerimeter=0;" parent="1" source="2CYpo4eM78xcHVAUHPCl-18" target="2CYpo4eM78xcHVAUHPCl-21" edge="1">
                    <mxGeometry relative="1" as="geometry"/>
                </mxCell>
                <mxCell id="2CYpo4eM78xcHVAUHPCl-20" value="gpt-4o" style="shape=cube;whiteSpace=wrap;html=1;boundedLbl=1;backgroundOutline=1;darkOpacity=0.05;darkOpacity2=0.1;size=10;" parent="1" vertex="1">
                    <mxGeometry x="796" y="119.25" width="180" height="40" as="geometry"/>
                </mxCell>
                <mxCell id="2CYpo4eM78xcHVAUHPCl-21" value="text-embedding-3-large" style="shape=cube;whiteSpace=wrap;html=1;boundedLbl=1;backgroundOutline=1;darkOpacity=0.05;darkOpacity2=0.1;size=10;" parent="1" vertex="1">
                    <mxGeometry x="796" y="83.25" width="180" height="40" as="geometry"/>
                </mxCell>
                <mxCell id="2CYpo4eM78xcHVAUHPCl-22" style="edgeStyle=orthogonalEdgeStyle;rounded=0;orthogonalLoop=1;jettySize=auto;html=1;entryX=0;entryY=0;entryDx=0;entryDy=15;entryPerimeter=0;" parent="1" source="2CYpo4eM78xcHVAUHPCl-18" target="2CYpo4eM78xcHVAUHPCl-20" edge="1">
                    <mxGeometry relative="1" as="geometry"/>
                </mxCell>
                <mxCell id="2CYpo4eM78xcHVAUHPCl-29" value="" style="edgeStyle=orthogonalEdgeStyle;rounded=0;orthogonalLoop=1;jettySize=auto;html=1;" parent="1" source="2CYpo4eM78xcHVAUHPCl-24" target="2CYpo4eM78xcHVAUHPCl-25" edge="1">
                    <mxGeometry relative="1" as="geometry"/>
                </mxCell>
                <mxCell id="2CYpo4eM78xcHVAUHPCl-24" value="You!" style="verticalLabelPosition=bottom;html=1;verticalAlign=top;align=center;strokeColor=none;fillColor=#00BEF2;shape=mxgraph.azure.user;labelBackgroundColor=default;" parent="1" vertex="1">
                    <mxGeometry x="505" y="-90" width="47.5" height="50" as="geometry"/>
                </mxCell>
                <mxCell id="2CYpo4eM78xcHVAUHPCl-28" value="Powered&lt;br&gt;By" style="edgeStyle=orthogonalEdgeStyle;rounded=0;orthogonalLoop=1;jettySize=auto;html=1;entryX=1;entryY=0.5;entryDx=0;entryDy=0;" parent="1" source="2CYpo4eM78xcHVAUHPCl-26" target="2CYpo4eM78xcHVAUHPCl-1" edge="1">
                    <mxGeometry relative="1" as="geometry"/>
                </mxCell>
                <mxCell id="2CYpo4eM78xcHVAUHPCl-33" value="1" style="ellipse;whiteSpace=wrap;html=1;aspect=fixed;fillColor=#f8cecc;strokeColor=#b85450;fontColor=#FF0000;" parent="1" vertex="1">
                    <mxGeometry x="540" y="10" width="20" height="20" as="geometry"/>
                </mxCell>
                <mxCell id="2CYpo4eM78xcHVAUHPCl-34" value="Upload a file." style="text;html=1;strokeColor=none;fillColor=none;align=left;verticalAlign=middle;whiteSpace=wrap;rounded=0;" parent="1" vertex="1">
                    <mxGeometry x="563" y="12.5" width="80" height="15" as="geometry"/>
                </mxCell>
                <mxCell id="2CYpo4eM78xcHVAUHPCl-40" value="Enter search question, transform this to vectors, then lookup the nearest neighbour results by confidence score." style="text;html=1;align=left;verticalAlign=middle;whiteSpace=wrap;rounded=0;rotation=0;fillColor=default;" parent="1" vertex="1">
                    <mxGeometry x="412.5" y="184" width="200" height="60" as="geometry"/>
                </mxCell>
                <mxCell id="2CYpo4eM78xcHVAUHPCl-41" value="" style="edgeStyle=orthogonalEdgeStyle;rounded=0;orthogonalLoop=1;jettySize=auto;html=1;entryX=0;entryY=0.5;entryDx=0;entryDy=0;fillColor=#dae8fc;strokeColor=#6c8ebf;strokeWidth=2;dashed=1;horizontal=0;fontStyle=3" parent="1" target="2CYpo4eM78xcHVAUHPCl-17" edge="1">
                    <mxGeometry relative="1" as="geometry">
                        <Array as="points">
                            <mxPoint x="598" y="113"/>
                        </Array>
                        <mxPoint x="590" y="105" as="sourcePoint"/>
                    </mxGeometry>
                </mxCell>
                <mxCell id="2CYpo4eM78xcHVAUHPCl-44" value="4" style="ellipse;whiteSpace=wrap;html=1;aspect=fixed;fillColor=#f8cecc;strokeColor=#b85450;fontColor=#FF0000;" parent="1" vertex="1">
                    <mxGeometry x="680" y="185" width="20" height="20" as="geometry"/>
                </mxCell>
                <mxCell id="2CYpo4eM78xcHVAUHPCl-45" value="Replace near-neighbour search with an LLM for natrual language responses." style="text;html=1;strokeColor=none;fillColor=none;align=left;verticalAlign=middle;whiteSpace=wrap;rounded=0;" parent="1" vertex="1">
                    <mxGeometry x="709" y="173.25" width="281" height="43.5" as="geometry"/>
                </mxCell>
                <mxCell id="2CYpo4eM78xcHVAUHPCl-27" value="" style="group" parent="1" vertex="1" connectable="0">
                    <mxGeometry x="460" y="50" width="137.5" height="140" as="geometry"/>
                </mxCell>
                <mxCell id="2CYpo4eM78xcHVAUHPCl-25" value="" style="image;aspect=fixed;html=1;points=[];align=center;fontSize=12;image=img/lib/azure2/general/Browser.svg;" parent="2CYpo4eM78xcHVAUHPCl-27" vertex="1">
                    <mxGeometry width="137.5" height="110" as="geometry"/>
                </mxCell>
                <mxCell id="2CYpo4eM78xcHVAUHPCl-26" value="" style="shape=image;verticalLabelPosition=bottom;labelBackgroundColor=default;verticalAlign=top;aspect=fixed;imageAspect=0;image=data:image/png,iVBORw0KGgoAAAANSUhEUgAAAYIAAADqCAYAAACvKkIKAAAAAXNSR0IArs4c6QAAADhlWElmTU0AKgAAAAgAAYdpAAQAAAABAAAAGgAAAAAAAqACAAQAAAABAAABgqADAAQAAAABAAAA6gAAAACDqm+HAABAAElEQVR4Ae2dB5iUtdbHg4C998YVBUVRUWzYRcV27b0gF8Verl2w94JYP3v3WsAuil2woKKiIhZERaSDgKKIXdT5zi+amDeT2Z2ZZZfd2XOeZ/bNm55/yknOOXm3SU7IKCkCioAioAg0WgTmaLQt14YrAoqAIqAIWASUEehAUAQUAUWgkSOgjKCRDwBtviKgCCgCygh0DCgCioAi0MgRUEbQyAeANl8RUAQUAWUEOgYUAUVAEWjkCCgjaOQDQJuvCCgCioAyAh0DioAioAjMZgTuueceM2TIkNlWiyQjOOSQQ0yTJk0K/hZccEHz888/F13pn376yZCmqjyPOOKIovPTiIpATRFYeumlk+Pxtttuq2nWFZX+iy++SOLEXH7rrbdqta39+vUrWHaLFi1qtey6zPy9994zXbt2NUcffXRJxRYaw6l19phjjqky7yQjOP30081DDz1kttpqq2Ti77//3jzyyCPJsJQneZEmRZtssom5//77Tffu3VPB6qcI1AoCd9xxh1lppZXy8p45c2aeX2P2WH755c3NN9+chOD3339P+s8qzy233NIym9TaUEn95DYfb7/9dknM9dlnn7Vr5yqrrFIQ8i5dupjnn3+++vWVT0wUoh9//JHPTyR/66yzTqFkef7t2rVL5kHeU6dOzYuvHopAXSBw2WWX5Y3LG264oS6KbnBlbLfddnlYvfbaa3XSDln088peaqml6qTs2i5k+vTpmbbJwl1yke+//34mD7dmt23bNvfnn38WlV/yRODYy7zzzmskM/eaeXKceeONNzJ+qZdBgwaZDz/8MBVkpDPNEksskQxTT0WgthFYYYUVaruIisk/dXqqq8Y1a9bMLLDAAnVVXJ2W88ADD2TKu/fee83kyZMzftW9rL766skoG2ywgRWtJQMjzyoZAXHnnntuu2CzaMd00003xV557zfeeKP1O+GEE/LCFltssTw/9VAEFAFFoLEgcO211+Y1FbFlKQSjTFHz5s1T3km/ahkBqcjw+OOPz8vgvvvuM5MmTcrzdx6E9enTx+yzzz6mkpQ7rn36VAQUAUWgXASQqAwfPjwv+XXXXWd+++23PP/a9EizkkSJBx98sDnjjDPyQuBeZ599dp4/Hrfffrv1R2P97rvvJuOEnjT+m2++Cb0ybhgSp4hUvHnmmccstNBCmfjVvZAPIq7x48fb4xjHz2WXXdagfGnZsmVe8lS5LtIcc8xhllxySfPdd98VtKhycb799lvz66+/uqRmrrnmMosssoh/d45p06aZDz74wHzyySe2bWuttZZZc801XXDe848//rDxP/vsM4sjx3na0qpVK/PKK6/Y4/W6666blw4P6jRs2DArxptzzjkNZa2xxhoG8WBMP/zwg+EXU9gHiAP5gce//vUvs9FGG5nFF188k2To0KG2vr/88otZddVVzaabbmoK7W5cQizQXD2xjqB9G2+8sWnatKmLMsueor8yImNN5ofFhghfzZQpU5LhiDypE3E++ugjg4h04YUXtu1s3759Mk3oSV+OHDnSYjh27FjTpk0bI7o2iyXtDqmqehAP3FGu0heFiDiMydCow43XQmmq8i+3n0RmblCafv7552a99dYzjNfqxkSqHqQfPXq0GTNmjAFLN69XW221VPQ8v3Lrn5dRFR5OSRxHYUw98cQTZu+9946Dau+9Ok0CSmGxHLDRunXrlqeUQGkjAygvG5ncOcKcwuLKK6/MS0tYSHfeeWdeHGm595OF2kZPxRProzCrKt1i7ZC75JJLbP3C/EN3x44dcy+99FImn1S5YRqZRLlOnTr5+oZhzv3111/nZIHOxEGZHpIww9wBBxyQiePSU6+Ugv3TTz/NgYGLFz7BjXexBguLsW6UVSiowvih+7TTTssJA8ykKxSftk+cODG34447JvMTeajNR06KSZwYD8L4MmW5FxSGl156aTJf8BRTRhe16Cf1CduK2ymLhTHmhYVxxawyN2LEiIJxXn/99ZycmJNjbLfddsvNmDGjYD3FGiSZjvKF8eVk85JJW1U9SCNWI3a8h/WP3bLw5MR8Ma89jFfoqKOOygtLKYvL7SfSnXzyyXllMHafeuqpnBvDrt6sLSl69dVXc5tttllePi4da5nIzv1vhx12yGRTbv0zmRTxAq7UiTkbt835F5GNj+LaFz4PO+wwH16dgx1LlRQyArnwkARYzD/z8nCTTEzPbFgxjAArpcsvvzxZxoknnpj78ssvbV4wGdlleQCFc+aE++fVoZDHscce68s49dRTcyy8sgPIpRZ62cn5bFgcxN7Xpw1Bd5OTRfrII4/Mi7PhhhvmZHditfhyAsntt99+Ng6LGG1xhJtB7vJmclI3JoPzo09kd+eSWDcD3IWfc845uQkTJuRgDiKW8/4xI8DaIGRKLOSy+7Q/FmWXH3VngXfEQn7WWWf5cBePRYqfe0895WSSKTOOQ31gqCGxaIaTm/bLaSk3atQoPwaYTCGOYfpCbjdGwzo4RkAa2Znl5LSbaY/ovPxYY0MxYMCAZHsOPPDATLqwDNzgF5PsXPMWQ+YW8+L666/P5OfmFXmweImsORPuypMTu2XkcoLL4Xb+4ZOxC7NnfIfzjzHnrE6KYQTl9hPjmwU5rBPucB6kwmL85FJWJg/GMGOVdaOQ5SLjxlG59XfpS3m6/hLT+lyPHj0y9XZtdWtKMfm6NOGz1hgBFUrtOlkoYnLx3IJVDCMgDwZeOOldw1IThwWBcMcg4jqk3p955pkM6PHiGC6M5E0ZIcXmXq5+MBNH1Mf5uydtCsnh8fjjj3tvFhZ2Ky4NzzDfMIyTgZukF110kU/DwGZBcUQc1xdhW+VCYN4CFu7G2ZWG9Yh3TizWYbhzU/7DDz+ce/PNN3Mpk0PiwbRYUNmpuj506Xk++uijrvr2GU8U+tCRiCt9PVg4mPjFUnWMABzZZFAnMISRp4hTU1h/52bnzw41VU64ALk877777kw+lB1S2P+UAcYhpeYNGIcUMnhXTxiNIxHL2Dqw8QqpGEZQbj9dddVVmXZTLzZljN3RssEDR1dX94xPBPSNC3NP0U/6JsR9AP4DBw7M0V5H5dbfpS/2SbvYMFEH5qGIsfLqThtKWsglvmu3e5aUvrrKM1GdaIi4THJXUPgUHYDPyp0cjjvuOO/nFr4wDYMyRQzeMB5uOj4UUbiOR4RSCvXs2TMv7zBf6hyXzQkkpFScW2+9NYyS3IHARBzRdtrE4u8o3rHFIqP46P7xxx/bpLEoJhzcRHCTO2QEIfOgvTDAkFKikZBpEZeBHGMlyi+fDaepOJw2h4z7rrvuyouD2M4RbYzzcOIK4rCjCsNvueUWl7TaZ7w4kI87EcAEmEj4wXTDxTLO2O3uwnrsvPPOdqfu4saLOHHZpTuiTTGe1C+keKFibnIacAQDDeuAO54fJ510Ul6ckFnAAEiHuCmk6hhBuf3ERjFuN+1ymxzqwCk7blfMCMKTjIsruiTfhNRiG24oyq2/L6AEx8svv2zbQ184Sp2IaEc41l3c1NO1OXyWwgiKshqSzD3tuuuu1pzUe/ztcGaivDr34YcfHkcr6n2bbbbJu7+AAkUGrE8vDMm6RVTj/YpxdOjQIRNNBmHmPWXSKiKITBw+wRGTU4zjL52XvDshOxCbDCUp1gIo0UMlZ6w8ksU5U0ysbJUBZcNlYc3Ek0XHiCjBK6TXX399ezvU3RQXxmfkhJVJEyvRUGzKZMvEEZFT5j1+kQ2DCfNBARwTNs8oWh2hkI7pq6++8l6yGHq3c4R9FCvZX3jhBRet7KcsQkYWPkN/yEnAiIgkqTSvqgDZxWaUnHFfkjZUNDN+QkUt4XEa2Tzg7UlEB0YWM/++00475dnbY7Unp0ofB6OBmNy8QllMPYTxmZVXXjmOVuV7uf2U+uqAiNUy9u8o3uN5GldGxKCxl8F4wRGfuInpnXfe8V7l1t9nUIJDNis29kEHHeRTFfq8xP/+9z8fpzYdJTMCLHdk15BXJznKGSYwiyCWRAymQhcd8hJHHlhFpO4dkK8j2Unahcotbs6/uucWW2xhhBPbgSXHMyPHcWseSzq+nzRu3Li8LGTXlfHDeoPFNiTZdRvZVVgvPpmRIjfhuDQCcf07JJfe+cGA+BiV+4UDlziOEaQW3P/+97+GC1Oyw7Xt4ltOogOwWfP9mJhiJkN4zAiwAgqtneI84nfuoFRHKaukME1qgjs8eIYLIelqyghgAjBoOeHZatDP8803X1ilstwpLGRn5/NKXbqMmRzMOSasyhxh7SX6L/fqn27TxAYE5hGTnPSs13PPPWeZ0aGHHhpHqfa93H6Sk0de3szLUil1MTW0NpKTd16W4Yaj3PrnZVqNB5fFYDqMq9ACcPvttzdspGK65pprTKrucbwav6eOGaFfLBoiLHVUk4rkELtcccUV9tgTy3lLEQ1RBoob8ox/KEGRZeOPfLhcckdPZHQoxQopgSknlJ278lKKZY7u5Iv8j590dqb+HGcpj6Mw8vOQUEzGba3u3elm3FGzUHzqElrVPPbYY3lloeCOyekWwnxDhWx8pA9FiOSFOCVMi1sYd6aY1JE8lE+nZNpxnvF7KHLJFBa9yITMq1+cF+/9+/ePUmZfU6IhxHwhye4vrywxD/VRUu2UTYkPx0E94vphDBBSyoKIOQw5IwlnqBDmRV2QxdOnKTFYdaKhVP3D/FNu+mn33XfPa1PKGikea7FoKBYRUh4iakduzQjrIYusC7bWjWFYMe5ix5kvRBzusyasHzGlxNbUA4uu6ihV31JEQ0XfI5CCPMF9EY+EO3QCr776aru7ZicpMlIfvxyHdLzd3SDiCIlLbNIB1osjZLkkMnC7WxbZoj+SU2eO6+zuq6O99trLiDltJhoiMVngDbscWRwsJw/zIu9evXrZ8mLxEvWJiR2C2/XHYbzPP//81pvTF/mmPs5FBOojTMPIQmJPBZzaYopPPYRzvyEmYcT2fkHsX1vv3KWIiZNRandMPERts2IHH5bJOBMLq4xIKwyfFW7uslRHqf4QXVkmGSIdTsli+uz9OQVweYm5hMhKzDTtrtRHEAenK04GnCiqO6WF6Zy73H4SazSXhX9ysimVhKHYexbhyUosuowwQZuVKO3zskSU5qjc+rv0xTxF72S4LAaxdojOLpMsFBWGAaTZZZddQq9Z766O06ROBKTBtElqk/xdeOGFedmWeiIggxQXZ9fJboDddrmEkiiuuzMTlcU0Lyx1IqDs1C6JupE3Sh7MG+NyeGd3w8kgJDmmJuOm7miE6UI3O0Z2/6ky8aNuKBdrciJgB+8o3qXV1YnA9ZWrR7nP1ImAOxLCWPMwRJkXWmOFZdbWiQAz45BSJwJ29zGl2uXGJWOfUyt9lRonodFHmG9qrIc799SJoJh+ik/N1Ik7GDHFY432xIRJsbPycm3DGAET3Di9iGczycutfyaTal5QylMv5iinr9QPow1X9/AZzrtUMWFc5y7lRDCHJCqLuB0p5mrJtPFOORmpCE9k8exkQ2JHCucsR45JPuwM/v3vf4dZ2k9uczu1VEq1k7oh+0ehueKKK+bpEihDOsh+wyksDxm9DNbQy7q5JVwdEYddPjoAbt2i94gVjeRB3bitGip0Xd7c7o0pVl4Szi3luqSUnkkYc61VgfEGfnFf8MlfTnm1RWuvvXZe1nGfoMOKKaVsZ/cY15++l8XTYIiBDi7WT5Ev863QzfO43Pi93H7ixnRMIhaOvYp6X3TRRe1cDnfafBFh//33t+k5KaHf5BQVSxPKrX9RFfs7kvucN/qnvn37Jn9OkRznW8x33eI0pbyXzQgoJKXQ5btCXOeeVVToHyogmimHOnfunJdMdnt5fsV4cAWeyRNTaC0lO7Y42P4TijxP8UgNxt69e6ei2m88uWMwjO3MM8+08VDm/+c//zEwh9Tg4SieWsxTR+PQ2oTMOWanxBPJCs4iz9RCgRiDY3ZMKLJDkUgcXuw7n8RwyuIwDYtIStkaxinXnWIEfG4hpNQnIlLpsJYJx6DLQ8yevSXTHnvs4bz9syb/HKrcfmrdurUv3zliKz3nX92TjQvzQG6g26hYJGEYwdiGubz44otG7ixYI4o4r3LrH+dT6B3mw+KPuLfQBpq0MKvUJg6xXqjcLlRO2f6pY0bo546UTrkahiFmcOFSAXuk4ZJGilKfB0gd7+K0KK7iY11sGx2nKfSOcsfVM3zyuQCIoz/HtTAMdyHREGmwWw/jc+wLsYrFQ1WJtJyiPcwPd3xcxyaaoz1lQRwnwSil5Ittz7mgAzmllSvL5WUD5Q/23S7MPVGqhxT3S22Ihrg05coPn4hjQqJv3QU2bkcXQykRirtHQHrERGGZuMEaQ4aQZoVoiIuDMZ4oQEPiHkhYH8ZSeA8ljIsNfRgXN4YWjlLiIUQrhag60VC5/eTuuIR1RTQXklj05LUFrMJ5RvxQLIRyvhQqt/7FluHmYXh3oFDa1J0I8LnggguSSViHQ/ycuxQMqvzEBJeDXKbxLUZXI1FS+jjI2eLOcfEKfTsnvFzk4sbP+BskyNrKIa6yu/aETy5kif10kgkQDwuoQgwuvnglip28qoVyUMopRFxskxNGXh0Z9Fh8cPM0XJwcg2Jxop5YkMT4y07C5xf2D7oHFv8QB5cf9Yvl0VyQConFNkzr3AxKR6lLPNQ1pLgc8ollm6kLfMSjvciA+UyI25DE1jphWbE7vlRHnqElGouzy9e1j2c8wVKfFIknLZ/vCPPAzec2QuLbRGGc+GZxbMXFIloVhfGxzokpZCwiKomDM+9Ye4V1w814DKncfkqtDfIfEG3WspPOG6euHqEuIb4JTxz6iQWYT66cf/75uYsvvjjHxU9wS22ayq1/iEHKzebL1Tn1OZ44Dd84c/HjZ2q9LKSvRb8brwdxWe49yQjgwJgshVfWmRAsKiyI4WQPlZzh908ogInErsuZrcWN4p3BykLrduWuYuEzZEjUIyw/jFeMO2xTqj6FbvhRbngDOSxLLIB8x6Ekjim8Qh/eLo7j8U6nxjvDVD1D81zHCIjHbkqOwPZ7Qewow7CYmWEKGjIDJjtmhPxC5RmYhQOQBZ5JlqoXE45+5yQU4hLG5fMSTEQYT3wrmnhgzQ12p1DndMKgDvNIuVH0F0soTUNsXH7gAU6cDmlD6oRIXPqUNvAZg1R/kQ/9wFhFMenyD58wVxHv+SozacNPZhCXtIyZkKHjnzI/9Bn97QjLpb0xifWVrxd1TREbBuZ1WG/nZtPCJzQcldtPbCpSyusUrq5s93SbhnCOubDqnvGiXG79XfvjJ33POA7bxnrH2hrewHfpYBgwgZRJrWsLY9adFDEJZ2MZzmEXzz0xJmCzxJytipKMIDU5XcY8WfxDojPwB8iQECWE6apyuw4N04duZ8kR7tjC8GLdgJ0Cjt0XH1Zj0oUdR50pO/zoWlyW+5QCdxFS5MRDolxOBef5gS87tBRe3B2ILQgYHNS5UL+xsPJxtBTxzaBCCzbl89G1mPEWYgKuvnyKgrsA7j31ZFdWqL4ufnhCgQnz6QkXFj5pu/yj81TzCvqBSZhH7GYsF2ICLm64kDq/8Em9EMeEfrEbDGJiUS5UPxh0iEucNnyHUbGYUo+4D4kH4yGMXyGLKDYFcZ3D91jUWW4/IZZKbcJgNoMHD/YbE9qDCJDNJeJmTgIQ8zqsV7FuFsmQyq1/mIdzh5vkuD5srmIKT/tx/PidTVKhMRLH5R3RXlXUhECJWO8J22cUPXybP3WTtpQGcFMP6yEUp1w9R0kbKq2w6cd+X0RJ1vKHz1KEtxRTZfE5gs0339x+Nz4VzlVx2Q2UdHVfBpL9Xj+3EVFg8j8CUv9zQU5dVmkti4S9YyE7BSM7eHunA7tyrISqsw2XRcN/5x+FMGWRrhyb7lT7Z5Uf9ZSTjFUCcpcA67VZaZwwq+pZ03yYlrJTtp8q4ba7bF7sTdRlllmmpKyffvppe69CNjPJdNjaM7YLhScTFeFZbj9hFcg9EdqPBZfrW6y2+OdWzNX4/zG46siFrDzbfBdW6ImhiJyW8oLLrX9eRg3Eo94xAhZpsU+2C7QzZcNCZLnllrMLU1UXrBoI5lpNRUARmMUIsHnDYshZymFKHW+aZLdvN3+x5VcD2QvPYsSi7ASEekPChe0xVapoj3nImyEnYkLepqQIKAKKQIxAqIcU09k4OPPOOuLWGHRPSrlcje4RRDylxq98lI2joSNRiBou1YhewF6GqfVr1q5gfSoCikCDQsB9OI9K87XdqgixpyP3IUb33lif9YoROHmg6wwuTNFpPPkKX32TV7t66lMRUARmLwLh4i+SBHt5LP5qpyjMzZNPPmncJU8ug5577rmzt+L1pPR6pyPgCjwKrJDEqsXe9OSfaSspAoqAIhAjgI6Ab/pjOOFILIysghlluFgV+Y9LEg6z4MsIqf9T4NI3pme9YwSAjzJH9AL2H0ugMObatZIioAgoAtUhgLUc64fYzVurKyz/sILDwoyvJmNlxm9Wf6G2unrV9/B6yQjqO2haP0VAEVAEKgkBlbVUUm9qWxQBRUARKAMBZQRlgKZJFAFFQBGoJASUEVRSb2pbFAFFQBEoAwFlBGWApkkUAUVAEagkBJQRVFJvalsUAUVAESgDAWUEZYCmSRQBRUARqCQElBFUUm9qWxQBRUARKAMBZQRlgKZJFAFFQBGoJASUEVRSb2pbFAFFQBEoAwFlBGWApkkUAUVAEagkBJQRVFJvalsUAUVAESgDAWUEZYCmSRQBRUARqCQElBFUUm9qWxQBRUARKAMBZQRlgKZJFAFFQBGoJASUEVRSb2pbFAFFQBEoAwFlBGWApkkUAUVAEagkBJQRVFJvalsUAUVAESgDAWUEZYCmSRQBRUARqCQElBFUUm9qWxQBRUARKAMBZQRlgKZJFAFFQBGoJASUEVRSb2pbFAFFQBEoAwFlBGWApkkUAUVAEagkBJQRVFJvalsUAUVAESgDAWUEZYCmSRQBRUARqCQElBFUUm9qWxQBRUARKAMBZQRlgKZJFAFFQBGoJASUEVRSb2pbFAFFQBEoAwFlBGWApkkUAUVAEagkBJqlGvPwww+b0aNHp4Ks39prr2223XZb637llVfM22+/nYk711xzmeOPPz7jV9XLJ598Yi644ALz448/mrPPPtusv/76VUWvs7CZM2eaQw45xHz55Zfm1ltvNSuuuGJJZcc4NmnSxOIy55xzlpTPrIw8ffp0c9FFF5m33nrL/Pe//zX77rvvrMy+QeY1ePBgM3DgwEzdd9hhB7Pmmmtm/FIvI0eONEcddZRZeumlzV133WWaNUtOqVTSeuP33HPPmQ8//DBTn+WWW8507tw546cvFYxALkGPPfZYbrfddstJszO/BRZYIHfWWWflZNL4VK+//nru2GOP9fGWWmqp3DnnnOPDi3HIpPPp27VrV0ySOokjDM7X69prry25zHvvvTcHZiGO3377bcn5lJPgjz/+yAkjygkzyyS//PLLM/URJpcJb4wv9PMGG2yQweXOO+8sCoorr7zSp3vvvfeKSlPfIslmLnf00Uf7djBeN9xww/pWTa1PLSJgCuXNQsKiHi5i1113XaHoOTchypkM66yzji+HhfP3338vWE5dBrzzzju+XjfddFNZRXft2tXnAZZ1xQguu+wyW25cXo8ePTL1GTZsWFntqrRE/fv3z+BSLCO46qqrfLqPPvqowcISz3dlBA22K8uqeEEdwRxzzJEnCqlKNNK+fXtZ54z517/+ZZ+l/JFThhEGYJPIxDJNmzYtJXmtxQ3b0rJly7LKWXTRRctKV5NEiOtkwU9mcfDBB5tVVlnFhiH2Wn311ZPxGpvnIossUlaTw3GxwgorlJVHfUjEfJeNX32oitZhNiBQpUCzefPmmSrF72EgegGIAVUq7b777gaZrOxKzHzzzVdq8lqLv+SSS1oG9f3335vWrVvXWjmzMuPhw4ebXXbZpWCWbdq0MZ9++qmRk4KZHUyqYMUaaECrVq1szVlE3WamgTZFq92IEaiSEcwKXMaMGWOefvppM2rUKLPsssuatm3bGhH9GBgHCudnn33WMgBX1vzzz286duxovvjiC4MSOaQOHTqYeeaZx7DjFd2EWW+99cz2229vSBPTTz/9ZMtFmffVV18ZFvW11lrLoOhGaQsttthipirmRhx2zChWw50f/tDkyZNtXT744AOz/PLLm6233tqsuuqqfwUW+XfGjBmmX79+Fh/qvO666xqRV5vU7vLPP/80Tz75pHn//ffNr7/+anf2KDTB8LTTTjMff/yx2W677QyMyxFhLFBgNXbsWIuFC+O5zTbb2L4I/cCeNsNUwLZTp05GxHeZk1p1/RrmR1+JmM1MnTrVbL755mazzTZL9hlxBg0aZCZMmGDHiognDCdN+twR5Yo4y73aJ3WjLwcMGGDHBf1AnUMi76FDhxrGw0orrWTDq2Pu4Pjyyy+bN954w3BiEL2ZgZGG5BhBMYrlQmMahvzmm2/afmT80IeMVwjlPspcEbnasbXffvuZeeedN6yCdTN2XnrpJdtG0jDWN9lkE+PqFycYN26cefHFF+2mAOMMZ/wRxwvff/75Z5sGHJlDYMy4aogK8rBd6hYEqhIoyYT18k+iPv/88wWjywS2cb/55hsf55lnnvHpZQDnZGD6d6dQDhXFlCGT1KYnbayjuPrqq3Oy4Po8iM9PFjtfJg7ew7R77713XhrSPfXUU5l0qRcRn+SEeeUFoVBHn0E+J598cm6rrbaybrEgycmC7eOfeOKJmbJDmf0jjzxiw6grsvsdd9zRx6WdYsnh8/ntt99yskDYcBHt5KiXK586iMVVLsYSf/ejvmIt5N+dvywIvgzkxFdccYWNQ97nnnuu7Q/iUkc5Sdi4xfQrEadNm5Zz2KMHEoswn3eom5AFxtddToc5MAv7WaybPKayMGfCqNsNN9yQC/VM+KHfgb777rtcly5dbLn04/nnn+8xoM9++OEHG+/dd9/1/qQXxpoDZ9zhTzYhNn74h7pS5+oI3MJ2kW/Pnj3z/PBnbD7wwAOZsvGnTsKgMkXJxsDXVTZRdjy6OqPXC8cjCcnbhbsn8865ecY6AvQf4EfYnnvuaccfbpTsYKzUsBGoNUYgO1a/GB955JEepSeeeMIOJscICAgnh2ME+MvuNzM4GXgHHXRQ7tRTT834w2Acff7555mw1157zQZdf/313p9FjcVDdpcuWcEnCyMLSUihNZEL+/rrr33+LDaOCjECrHVoD7999tnHRc+BlfMPsaC+zn/ixIk2Pou/Y664oYsvvtjHIz6MOVwIDjvssEx4yAhOP/10H3b//ffb/FioXLm0tZR+3XnnnX1ax0ROOukk60cfyM7flnHCCSf4eHKqsX7Uy5XL09WHQNnJZsLCeM6NshzGxoLm/Fx/O4aK/x133GHLixkBYWxeYPIuPU8W2phg4LfffnvsnXwPmajLl/6/9NJLM4wdRuyYMWPexeWJgtqRnPJ8GJi6ceCYbhxfTtk+PmG0DwOPcNzhHzICFnryxp+56izRsPDDD4bq/Fy99NmwEKg1RsAOgkHCj52EW7yAhwUiZAThySNc/OLJyW7bUWjeyoRxdM011/hyKZsFGhJRR8Zf7klY/3L+hKaG4QIQMjR28FAhRiBijEx93EmBBc/hxnPKlCk2HxYL5x9ab7Hzxd8tAJdccomPh7/L12Yif8IdMeGOEcQLxKRJk2ySxx9/3OfH7r7Yfg0XPBYRR5jUunZgaQaFi3X37t1dVH8aIT7MwlFcV/KnnSzqbgEVsVZO7Pp9WeykHYV9cuONN1rveKxhEu2o0Fhz4aU8RYzo60S7wpOEO7k4fDhlQyL2yaTp1q2bL5ITlIsPk3ckYiLvT7hjuuE4ArdffvnFJsFSLxy/ISPgdOTKOPDAA10R/lRAGJsjpYaLQOmaXen1Yii0wkDWjOxTdrUGWaYsBiVdOHPlIfd0hL7BUSgTl4XTedunU4jGugDk6eUQ+gYZ9D7pggsuaC/CyUJscDtCJl0VbbTRRt5KA53AwgsvbKPHynJhoNYfGbgjLoKhEEZWi4wW2XNKbuziF/MUc0kfTRZTs8wyy9j3nXbaycgCZYQJmPPOO8/Kyl3EqvpVzDFdNCu/Bx9+zqiAQPQX0AEHHGCf/AELR6HuB/1GIaKO4CcLpL38Rx+tttpqRkSJPkk4drjsiBxeFnuz//77+zihY4011vCvhcaaj1ADR6hbkE1QJifZQNl3dCSySPswEWdZN7qAvn37ev9QrxTrtIShW93cQw895OMzBl1/YKnn5oqP8LcDHZYj4ri+DMcc+galhotArTECbibKrsIjw2LNxGOwo9QqNOh8gmochayTWBRCEtGIfUXJGJLsEMPXot0suiHJDssqPlm0WBgdjRgxwjmTTyYRixtKQJTf3Gw97rjjCt7m3GOPPTL5oDRGSXr44YdnFudMpBJewpulLVq08ClZIO655x7DAsLCVGy/YpnkCFzAhx94OZLThXXC2LjJPn78eKvgvO2228yWW26Zd9vVpYufYV/CSFncMEgI2xQupCyYKGDlZOUZcJxn+F5orIVxZoW71HI+++yzTLHhJiJUsBOJjQ9K+JC4DV0dgWM4ruVipe9L8HMU18X567NhIFAlI4jt+THvLERulxLuEnr37p3Z4ZGWHTuLmohUCmVVI38si9xOioywxsDaJtyxEL7yyiuXVQ67sJBEoWrYtce/Yj/dMGTIEMPuE0spLFrChTIsB0uYcIfrwlg0ORWwS6sJiW7FJ2dBroqK6VdRFGeyYBGKMQoXauovOgp7EhG5tbVm4mRSLmHRFRKfCak0cpsc1y4RTDin3+k7D9ofn5bDU7uLFz+xFApJ9AF5/Ui/ikg2jKbuBoZAlYzAmbC5NonSyDnznpgGsutyR00isPt/9dVXDYtlTKI0jL1myTvMC9GNKL9sfogdOH6LLNi+s9BizlguhWIC8hBZujV1xD/8xTuyuDxOSJi+ilzXmo5yWhK5uhVZxHF5x1xP5OS2beFJizBMc/v06YOzbArFEtStKmZQTL+GYgoqxc4yxAe3G18waZjhfffdZ01d+fbPGWecYZZYYomy2yPy70xaxkS4UGYCG+hLeMqhCWH7RPafaRWnplB0SaDosTJxUi8w45Ahc9KN+5H3hRZaKJVc/RoIAlUygtgm3h3lU23D3jqUd2KHzkIHY0C2zA6RnZ4jFpt4R+PCavpk54OcmAHcq1cvIxYZhrqjn3jwwQdrJEoJF0zqiZw73jXBHGhfVcSxGpGQI7GEcs7kEwaGnTw235xykMGHdanp0TzsOyqAOChFxfZrfOIKdQYuX3exLbT5R2aPfL+mhE4oPBnCLGuyAahpfWojfYyxO5VTVujmnf6NmbMYChBULYX9wckuvt/DvKpq41BtARphtiNQJSPg8kpIYpVhL1GFfrhfeOEFg7JRPlzlg9iRyL0DL6dFJyCmmIajJcQi7Y6mfOXTUbhLYRcZEiIeR7GYyu2GGNxcGnv00UfNrrvuao444girWGXHWd0u3eVd1RM5t1g9+ShMDE48rq7sPJHdc4kOiuvp2sCCGpITpcT+Lg6iDr6A6ojF8+6773av/nMg7rKcCwAP5MObbrqp9XL1dOGuPuAUEp/9COuCPoPLZ4jGiulXLl+FxAmQxRhCDITClv6JGRgnSwidDsw8RXEbwjETxo+Z66GHHprJE8bKJzegOE+HC2GF+pCwUinOy41b8gnL5D0M492R85977rnt13qdf4glYkZHbBj22msva1AQjl30JE7USfxQVOf6gTxihTqnWCeKZNPDZTSxVnPF6bMhIiCDqkoKTfCkffYCCaaP2KdzkcXZt8vClMmHiz/El0GYIz52xrJL8ZdS5Ohv48tk96ZpxOfnvoiJbbXz48klKpksOUwzQ5NDwtzH7sL7Ai4tZnJyjLaXbjCBxGzRmc1lKl3kCyaXLm/3FMbmL/VQTwizv/iiE+aYUGzPT3qwcvm5J5fEMLl0JraY8olM1ubhTDFJ6zDj4phLy5MwnjfffLPtA3fvwMUhvqPYtJQ4mPq6i258ubTYfiVPd2fAlcUzxIM7A7LgZ+pLHGefHqajHSLms5jSljCMewGxmSzly6LrL/q5+C4fN35EdElUa8fv4vCsaqy5uyk2YYl/wnsZlIOZKmNaGJG/VOfqISIzmzumvM6PJ+OE+xyQLMh+ThEmO3PrH5qi8kE9R2Ae5sX4ot+ZI6E/bvzl5rsdN2G/uXjOT05e/mKeK0efDQuBKu8RuKYw+VMDxQ0I2RHnLaxuwXA2925BIg2TjAEMuTziJ7bysR/v3I4VMUkyTHY1OVduKm3ox0LAQlEucUHKLc5hvkx0JjUU2p+HcWBa1BXb9tCfi3JM+pAhUIacOmxZLJAOR9cfPEXE5JsBs+WCT5gvt5apU2hzHoY7JkomIhLKpCUeZYj83pbh8K2uX4kM84/vdZAfad0FM+KJ6DBTJriwQPPF17CeohjP8VXQ0C90s8jFBMOPL4WRhkVMdBE2ejljjYuLpVJqk0Jd2JiEC3fYpvjegQtjjDgSMWTGpp+FmXjECfvWxRfRYt585j6DG8/gz1gRKzZ/jwVGKxZqedhT7xQTdmXps2Eg0IRqyqApiuRyljUlQ0aIdRAySn6hjbvLCPk/ppbItDlmOv0CegdMEGuLaA66iJSFTVymTBL7LZvYv5R3RC/IulGY0bZSv7sCLuCKHNaZ8yEiQA/AP7DhWzvkyfdukPMi3iINR3KUhSgBY5EX6bECIk6Yb7HtQlRHmzDpxB6d7+s4I4By+hUZMt8HQm6NPX9qvBBGG8GAOrt7H4jEEFnQdne3odh2hPHInzoggqM9skiW9YHEMM/65ua7VbQRow5EoaEZcFxXRGGIDGURt5Z9zGe+mUWaqky76X/6A7GUbExqfH8lrpe+zx4ESmIEs6eKpZWKfb37z0rI0MNBjcwZe33ZmdlMuc+AvbqSIqAIKAKNGYGKYwQoNFECiiw8aSXCVzvZzYiIxe7EZ+e/jWzMA0/brggoAvUHgaYinz2v/lSn5jXhcgt26ZizISLhx90CrHv47IPIQq2oCguc8LMDNS9Zc1AEFAFFoGEiUHEnAnQEmMVxOQlzReTcyKj572rI8JEPc9kMmb6SIqAIKAKKgFxYLUVZrIApAoqAIqAIVB4CVV4oq7zmaosUAUVAEVAEYgSUEcSI6LsioAgoAo0MAWUEjazDtbmKgCKgCMQIKCOIEdF3RUARUAQaGQLKCBpZh2tzFQFFQBGIEVBGECOi74qAIqAINDIElBE0sg7X5ioCioAiECOgjCBGRN8VAUVAEWhkCCgjaGQdrs1VBBQBRSBGQBlBjIi+KwKKgCLQyBBQRtDIOlybqwgoAopAjIAyghgRfVcEFAFFoJEhoIygkXW4NlcRUAQUgRgBZQQxIvquCCgCikAjQ0AZQSPrcG2uIqAIKAIxAsoIYkT0XRFQBBSBRoaAMoJG1uHaXEVAEVAEYgSUEcSI6LsioAgoAo0MAWUEjazDtbmKgCKgCMQIKCOIEdF3RUARUAQaGQLKCBpZh2tzFQFFQBGIEVBGECOi74qAIqAINDIElBE0sg7X5ioCioAiECPQLPZw71OmfG0GDx5qRo0a77wa1XOllVqYDh3am6WWWrxRtVsb23ARqLQ5q3Ow7sZik5xQXBwD6v77+5mNNlrXtGzZwjRpEseo7HcQGTNmvHnzzSFm//13UWZQ2d1dEa2rtDmrc7Buh2WSEfTr118WvyXNiiu2qNva1LPSRo8eb6ZMmWp22WWbelYzrY4ikEWgUueszsFsP9fWW1JHgDiIk0BjJzBorKKxxt73Da39lTpndQ7WzUhMMgKKbmzioBTcikEKFfWrrwhU4nitxDbVx/FTkBHUx8o2pjr9+eefxqlvfv3118bUdG2rIqAI1DECJTOCE088zuy6607msssutb/eve8148aNreNq14/irrrqKvPkk0/mVWbAgAHmrrvuyvMvxuOPP/4wRx11lGnatKk58sgjzZdffmnmnntu07t3b5u8c+fO5txzzy0mq1kWZ3aUWajyDz74oGnTpk2hYPVPIHDjjdeb999/Py+kf//nTd++j+b5pzyGD/9Y9IaLmRkzZqSCa+Q3ceIEm/f48eNqlI8mLh+BkhlBnz69zVtvvWmmTp0iljVjZFE622y11Rbmo48+LL8WDTTlDTfcIIrkXcxnn32WacGgQYPMPffck/Er9mX48OHm5ptvNg8//LC5+uqrzeKLL24X/g4dOtgsfv75Z8OvLmlWlfndd9+JyLGJjJ+3yq7+77//bn766aey0zfGhLfddovMzw/ymj5w4Cvmsccey/NPebjTKSfVWU0ub/ec1flrftUjUDIjaNmypZwELjdXXnmNuekmBtgntpR+/Z6wTxaNkSNHGiYsu4jRo0f7Wkyf/q155523zQ8//OD9pkyZYiZPnuzfp0+fbiZM+OfuAnHHjPknj6lTp8r9hrfMpEkTfRrnYDcNQ6rrncUBBxxgZs6c6aqRfIILCyA7/EL07bffmrffftsGr7HGGnbBb968uZiw7m+WX375QsnMtGnTbN6//PJLwTgEMNHomzfeeMNQVkyujqmwOG5VZbJYfPjhh2bYsGF2HJAW8dann35qs/niiy/MxInZ/hs1apRNk1poGBMw12+++Sauhr7PIgTcvCW7zz8fYT744APDfKqKCGeOM6ZSi/jYsWPsXP3qq6/yspk58zczZMi7dT5X8yqiHhaBkhlBjFuzZk3NXHPNZeaff34b9P77Q80mm3Qw//lPZ7Pllpubhx56wDC5ESm1adNaFrV9TKtWK5hevXra+I8++rDp0mV/n+2FF55nOnbczC8g9957tzniiMNs+OWXX2bWXHM1c9xxx5j27duZs8463aeDAbRp08p06rSlWW+99mbnnf9dJzvHM844QybO5+biiy/2dYkdt99+u5l33nnNtttua5Zddlmz/fbbm9Si3bdvX8HpRJu8Y8eOhhMHtOqqq9qF0L4Ef5h8hx9+uD01bLTRRmaeeeYxiE5SxC56xx13NCuvvLLZd999zaKLLmoeeOABHxVRFnUkH8JOOukkHxY6qitz6NChZuGFFzZrrbWW9NWaYoK8ovnkk09kwo8322yzjc0K0dexxx5r3SzynHZatWpl04CPYxhE6NWrl1lkkUXMpptuahZbbDHzxBN/bThsYv0zyxBw85Z5uummG8lY3crOJ5hCimAUzDfmOPN9nXXaeRExm8CuXQ80G2ywrunceT+zxhqrmmuuucpnA1NffvllzL//vZ2dq24t8BHUUecIlMwIxog46KKLLjDXX3+tueCC82TAdDKrrbaaOfjgQzKVb9duLRkYk0yPHqebu+++yyBSGjDgZdk9jJHF6hE5UVxukFFusUVHuxNEbMAi89xzz5rvv/9ediR/yTRff/11KWM7u+u94ope5r777pddxhCJ119MO0cZdhvsxvfbb2/57S+nicmySxlhWGAuvbTw4pypbA1eVlhhBXPHHXeY888/PynyYMIcdthhVmdAnTghIa8955xz8krt1q2beeSRR6w/p6RUnDARDIbF/KOPPrLM9pZbbhEM9svbbZMGvcWzzz4rIr2pdlGmzs8//7zNjp07Zd9///02H04liKVgTDFVVSb9sMMOO5g999zTMmFOFquvvrplbq1btzZjx/6lS3rhhRd83sccc4yZY4457G6fUwNMkvTQkCFDZPz0MHfeeafdncJQnnvuubhK+j4LEfjppx/lBD5B5tY4Wcg7yLg4KC93+nnPPXc1u+22h53jxF1ttbay+HexcT/5ZLiMo5zMh3dlkzTa9OzZy85FNiP0cdeunc2BB3axaUeMGJWRGuQVph51gkDJjIBasVCPGPGZFXNwImCCIq4J6aijjrEnBfxef/01c8ghh8oOsZ2N0rHjlrJz39buchlAyME5Jn766V9ipkMPPcy88srL9lQwYMALZvPNt7C7XRI/8EAfm27VVVcT5vKgWWKJJexR9uuvvzabbbaFMJUPZCCPNm3briYLW29bXm3/2XvvveVU00V2P50zYi/KhZGtssoq5qCDDrILHqK17t27+0W4JnXr06eP3XEjPhs8eLBp1+4vfJ14KcybXTp07bXX2mN/165dvUJ74MCBNoy6kQ9H/gUWWCC56FZVJvoNRH2cjjidUCYyaJhOimD85LfxxhtbPct7771nTyTkA4NHhAV2Bx98sMWOk1Ghk0oqf/UrHYEePc60fTfffPOZU0/tYef5N99My2TEKYE1gHCkAcTt3v00KyZC/Ms8v/fe3qZ582ay6Rnq14FJkybZ/Ejbvfvp1n+hhRayaTMF6EudI1DwW0OFasJiwSJ/0EHdfBSOdkcddbhM5i+8nxMV4cHOvX37dXwYjhYtWshOYJSd4Oz4UUDDEHbccWez9dbbWIskmAULEmmbNWtmnnnmeXsS2WOPXWxexx13gjnttDPsDhePK664TPJrasMYgIgZ6opYYBGFnHrqqWbppZf2xdJ2xCMh0XZk6DWlV155xWZx/PHHZ7JKiZ0233xzu+gibrrooovESmMpu+tH/8DCC4X5MFmZ4DFVVabb8ZO3I8RN/FLkZP5YX8EwIU5NEIyd01MKOxtB/5SEwMyZv+fF/+23mTJfmmT8l1lmGf++9NJ/udHncGpzhJgPYhPmyMUljD7s0qWzXfRXWaWNbI6+d9H8aTVMu8wydTdPfUXUkUGgZEaQSf33S8uWK9odwo8//pgKtuKBWNbI8XHjjTex8bfccmuxlLnR6hkOOeQw2RVubHcSTz/dT5jC1pYJEHHdddeTXew9Igr6zTz66KOycB0r4Z1Evtza5nP33b3rdPG3hf79h93vfffdJ/qNjtbHPRGNPPTQQ1bk4iYTJ6gNN9wwTF6W+8ADD7SY3XTTTUWlZ9Hnh8gGsRNK7t13313ku+uYlVZayZ4GqsuoqjJRGkLoTNi9Q+wCx40bl2mvUwgj84fR33rrrVakZRMEfxA5cmIgvsPOMa0gmjqrQWDttdtbI41u3f4R33Iaw3Dj3//eMZN65MjP/cl91Ki/NnYrrriSiPXG+HhuvsH4HaPGAAAizMn8EQPTvyiU0SX8Fd7KPrNp/xo3NkD/zBYE/mHzRRaPtQiK2c8++9R8/PEwmaj3iby/l5UnLrjggslcdthhRxHp3C/y74estc8tt9xkTwCdOv2lPNxkk02taGigmLPBHBArcBr4v/+7RhbWrW2eDKbWrVuK3X4/ERn9YRWHBKBIZDCy8zjllBOtBQM7yc6d97cKK+KwQB188H9kQRrLq5wiutv64O7f/wU5zRxRrdUPcaujLbbYwsq0w3hbbrml6C0mSJmnWRk5cnruASBOqintuuuu1tQUPQE6BRTFmGemREM33nijVciis+A4D27s3DlpUUdOLmeeeaat61ti3dSqVSt7YojrWFWZMBPEUyiwWbApCwUxZUOcElkYUPiy44cQUXGKokwsqlC+M46wYqFeiJrAbozophAzcXpwhLwZcZzqDRwi6edOO+0s2D0ixgfX2fnH/DjzzL9EOW4OupQ9epwqot7hdm4zT9Dhhad74tHPzLcePU6xu37Wg9NOO9XOWU5/c87ZXHQ+02zfIaa9QHSJjmAqjC3Ssjnk5E5apdmMgOwM8ujqq+/ITZkyLfmT6ubCn4hfcnvttU9OFLQ2/uOPP2nDJ02amkl/4YUX50T0Y8NEvJS75ZbbMuGya8ltttlm3q9Xryts3Pfe+8D7iRzSly0LSu7ii3v6sKFDP8wJE/Hh5DV06Ec2/OGHH7P+Tz75TG7ixCk5yu/a9WAbdsYZ5+TIS5RWPq+w7WBRiGRCSDtuyQSLWCYni2FOTgTe/8UXX8y1bdvW1oGyRAGak12uDw8dosC18UI/8BZlr/USRWpOFk4ffOWVV+ZkQfd5i+jHh4UOOa7n9tlnHxuP/Kj7Sy+95KP079/f15FwucyWoy1QKWWKGCHXqVMnX44ojwXXKb6cnj172jD6B5LFPCf6E9sHrl4ifvLxZfHPiemsTUOdRb9i34kgzMSmu/zyy338xuqoas4yni+9tJfHGJyZt2J44ce8m7fnnXeB7zv6aNiwT22cl19+1fqL+Ne+M7cIJy9+22+/Q04Uwzbs/feH5ZjPLuykk06x7kGDBttwni6c+XD22efa8HffHWrDw/mHu6o52Fj7e1a3O/n10WuuuVPEBrtJP856Qn7oFJfl5I6YAIXUIossane/cR7sJAWkPLk0ClBu60KhO/VuI/39p0+fx80JJ/yjDwnDSnXTdna7TsxRavqq4rPDxuyzurx/++03gwiPE0GKEBuxA+T+QnVUVZn0A8TpLibMCyFOI47wmzFjhm2D8wufnERpHyeekOK+DMMak7vYOcv9m6ZNm9nTYIjPm2++IVZAO8uJYaqI4v4Q8+Zf7ektjJNyo49CzzDnnHPlBTPe55tvXhlLc+aF4UF/c4IIx0Eq4qycg6n81U/mYl2DUBMmQF1Z6BZddLGC1U4tPER2TCB2p97xqw2qadurqhOK9mJozjnnlEmbnpikL8QgUnlXVWahfiCf1MTHj4W+EKFPSFHYr6lw9csisOyyy2U9Em8s3IUW7zg6nz8pRNWN90Ki5EL5qX/tIVBQRyCb6kZPikGjHwINCoCajFeU+3fffV+1J8q6BqQmbarrujbk8pKMgH8Rx3/oauwEBmChpAjUdwRqOmcRtYqcP0/0NrvbrXOwbnogyQj4X738m0b+O1Bj5Mi0mbaDAVgoKQL1HYFKm7M6B+t2xCWVxVSB/4Gq/7xe/3l93Q5HLa0mCFTanNV/Xl+T0VBa2oKMoLRsNLYioAgoAopAQ0UgKRpqqI3ReisCioAioAiUjoAygtIx0xSKgCKgCFQUAsoIKqo7tTGKgCKgCJSOgDKC0jHTFIqAIqAIVBQCyggqqju1MYqAIqAIlI6AMoLSMdMUioAioAhUFALKCCqqO7UxioAioAiUjoAygtIx0xSKgCKgCFQUAsoIKqo7tTGKgCKgCJSOgDKC0jHTFIqAIqAIVBQCyggqqju1MYqAIqAIlI6AMoLSMdMUioAioAhUFALKCCqqO7UxioAioAiUjoAygtIx0xSKgCKgCFQUAsoIKqo7tTGKgCKgCJSOgDKC0jHTFIqAIqAIVBQCyggqqju1MYqAIqAIlI6AMoLSMdMUioAioAhUFALKCCqqO7UxioAioAiUjoAygtIx0xSKgCKgCFQUAsoIKqo7tTGKgCKgCJSOgDKC0jHTFIqAIqAIVBQCzaprzWOPPWaefPJJ8+GHH5offvjBrL766ma11VYzW2yxhXnnnXes/4MPPlhdNvUu/MorrzR//PGHr9cCCyxgjjrqKP9ermP8+PHmoYceMoMGDTLff/+92Xrrrc12221n2rdvX26Wmq4IBGrSn9dcc425//77zU477WROP/1006xZtdOiiBppFEWgASGQK0CySOa6deuWk6bk2rZtm7vppptysvDn7rrrrtxSSy1l/QnbYYcdCuRQv73POOMM3wbaQZtqShMnTswtv/zyNt9VVlnFYkXe/Pr161fT7DX93whMmzYt9/zzz2fwKLc/33rrrcw4eOKJJzL56osi0BgQKCgauueee8ydd94pa5ixO9wjjzzSrLfeeuaggw4yH3/8sZGFzoY11D8XX3yx2XDDDWdp9U844QQzYcIEm+e+++5rmjdv7vPnlKBUcwQ4xf3nP/+xO/cwt3L787vvvguzMfF7JlBfFIEKRaAgI7jwwgt9k+NFf7HFFjNXXXWVD2+ojiWWWGKWVv3VV1/1+S233HJmhRVW8O8b3p9PdgAAFLhJREFUb7yxd6ujfAR69uxpnn766WQG5fRnx44dTadOnWx+G2ywgRUPJTNXT0WgghFICkOnT59uRo0a5ZstYg2z5557+nccO+64o9lss80yfo355euvvzZTpkzJQLDpppuaL774wvz8889Wt5IJ1JeSEXj44YfNWWedVXK6qhLMOeecpn///ob+W3zxxauKqmGKQMUikGQEv//+e6bBe+21l7n00kvNcccdZ+add14fdv3115v33nvPvzvH5MmTzSuvvGI++OADIzJzqzBdddVVXbB/Uo7Ies1HH31kvvrqKyO6CNOhQwerjG7atKmPN2TIEPPll1/6dxzbbLON+fHHHw1MasyYMWbvvffOLLa//vqree2116wym/qsu+66ZquttjLV7Rqpy0svvWTLW3vttQ1tr055+M0335jBgwdn6kd9P//8c7u4rLTSSj7sp59+svkPHTrUwHDXWmsts8kmm5hWrVr5OLRn2LBh/h3HOuusYziJDRgwwLz++usWU7eTzUQMXv7880+r6H///fcNeHCyW3PNNc2zzz5rTjvttEy7iqkXTO2TTz4JSjC2vxZddFHz5ptv2nzpZ5TjSy65pI1HG5977jk7Tgjbb7/9MmPIZVbdmOndu7c58MADXXQzdepU89RTT9l3ygvFcD6SOKrqz1R7wHnZZZe1bQmNCRZZZBHbT8OHDzcvvPCCHXu77rqrWWONNcLivJuxDyb05RxzzGFPh2ycwAqaa665DHkqKQL1AoFCipBQISwVtQo1/G6++eac7HALJcuJlVFOLHBs/JNPPjkni691i0VOThYmn04WFK9Y/e9//5sT3YNPR/p7773Xx7322mt9mKuLWDJl/Egji5lNIwtwTia0LXfnnXfOHX300dZN2h49evh8CXP50bZLLrnEvzt/WWQy9faJA4dYmuSlc+kvuOACH1MW5BxKZMJEJJEDHxfvuuuu8+W8/PLLHhsXfsMNN/g2OT+U94Xot99+y1F34lLmIYccksFLmKhPWmy9nnnmmbx6iagmz48yZZHOPfDAA759rs7URaypfNk4ihkzLn3qKScxm1+p/Ul74nEu1kM2r9122y1Td8bTOeeck/GjLvQjhhWOwHWfffbx8WTx930e1p38lBSB+oKAKVQRFp5w4IZuJs99992Xl/Ttt9/2abp06WLD5cjt/c4//3yfBksk8sTKxi3gTMKwHNlN+fikDcNSbtmB5SZNmuQXPBYdFsSZM2dm0n766ac233DhID/aJUpHayUV5i+nG1+PlAMrFha+MA2LxogRI3JyWrBJxo4d68Mpxy3EZ599tvcXvYvP/sUXX/T+Yb6h+7LLLvPxY0fYf1gzQZQppw+bryu/1HqxeIZ1wM3CJydGjzt+MGZ+5557rmXyYZqwnaWMGbepIC8WUjYW4eainP5kHId1c4wAvNq1a5cJY6xefvnleeODvnJ02GGH+TRyYrP1++WXXzLYnHjiiTkRc7kk+lQEZjsCBRkBu5yqdrpMHhHH5GbMmOEbIco2Pwluv/127+9MKknDwswiFE4+FlFIbPAz/uwUHd12222ZMCa93GvInXTSSdafSUveXbt29fGOPfZYlzwzeeVOhPWPFw7HeETc5fOgnrfeeqvPp5CDE07YJk5OIe2+++4+nMXCkYihvD/pxerIBsX5wTy+/fbb3B133OEXWRFTuGzynuGulNOGI04RlOMYQan1EpFHpr4sao5g/iEGcpfCBsHoQ3/Mkh0VO2aIz8Lq8kntqMvpzxj/kBHE+YnezFa70PiIxzVj0xFm1q7uYf+7cH0qArMTgYJWQ8g1RVRiZAdY0FQU5V337t1lfBsr45fdnXXzZ8EFF7RyVJkc1u0CuISGnkGO3s7LrL/++tYd6h/wkJ2sjxM7ZKEz8803n+EikezIDXJwLrzdfffdPio6B0dXX321kWO8kR2dlZM7f/eU3au38pFF13nbZ01NCpGT9+3b1+cZWhO1bNnS++N4/PHHM+/uhctOCy+8sJFF1Oov0Klwsa8QoU9wJKI3s8suuxj0EpgAIxsH61lRL3QOjkJdCH4O/3nmmcfqilw8+gmiDcWOGZe22Oes7k/yW3HFFW3xhcaHbEQy1Qv7AJ2AI3ReSopAfUKgICNwlZSdjFW43XLLLSaeAMSRna+1MGJxCYmFev7557c/FGyORFxindxYRqHGIsuCcNFFF5mNNtrIRav22bp1ax8HBVyTJk3MZ5995v1wLL300v592223NSJ7N6eccor3qytHXC8YmCMWyZC4o5EiEXN5b9KHC4sPCBx77LFH8Gas0lh20ebwww/3SspZUa+wEDYPpVCpY6aUvGdHXBh1qMBng+IonAPVGSy4NPpUBOoKgeTM5fMI4UKCiR0LiIhOjChu8+rGgs7uMiSRDdsdPbv68MdFK4iFG0sRdrpYXohyOGMVEuZVrJv6hQSDqQ+EVVFIcgT0r/GCHltH+YglOvi0BaegmETEZk8FnNRmR73C+pQ6ZsK09dV9xBFH+Kph3YXlEabYbgNEYGj95COrQxGYjQgkGQGLBKKMWDQz99xzG8QMmHyGRHxM7kISpa31wz/8sQNmIRTrHWtmiIknF3neffddI5YtYRYlu1u0aJFJgyikPhAmtCGFjEAUiWFQQTFcJlIRLzBabjojeolvULMw9enTJyOuIcu6qFdY9VLGTJiuPrsxN+bkyekZ7DmFOdNgxEvc1u/cuXN9boLWrREikGQEDgc+M5Eijr/h4iaKWhPLh7FV5yJVSDAHPsTGiaNXr14+iAWLSVJTatOmTSYLxFaUN7tp5ZVXzlTBycjxDN28hzJ33sslRHPcOUD/gj07l6bCPkIsNDvqFbYnrA/+VY2ZMF19dnMCGD16tOFeBndbuADHnRo2VYhBDz74YHsars9t0Lo1PgSqZATyIS97ISuGRSyF/Dd1uAyFaAd9gFhZ+Kh8cwfxkLuc5nZHfB6A3X9I3OqEUCQXIpePC48Vc/hzM5RvIYXEKSNMKyaXRj6gZ6OE/mGacGeMP5O7OorzEpNVn4STlJiJ+vdQNj9y5Ejvz8LIjhKK80u11ydMOBC7ibWTD4F5h4p0FJ/l1CvGIsSKC2whhWEp/1LGTJgeN5f1wOR///ufvRyHX4wZflBcj7ANoZu44Xux+YXtRnSKQp8NCJ9pgRnwpV5OP5zSlBSBeomATJI84suOUln7k526tXl29toy+XJyw9iHYeboaNy4cT5dmB57ft651ATFttuExTbb+GFaKFZJOZmQuQMOOCCTN/bpclvWFe2fImPPuyRE+Zg2ykJrf9w1EPl0xrab8mRRtvlwWY1395PPaVjTVF9IwiG3rH180mG+yf0FRyI+y5iwYioLhSaXsmt30e3FPVc+Ty6HYT5aLHGRiXRygzgnu1GbjEt6+NGn4ASVWi8ukIX1wkSXsUEfhSaSxHH29eAdpqEfXN8VO2aoq5wcM/mI+MW+Y9Jabn+CT1g3Zw5bSn7y+RV7qQwcwrxwgzX1xIQak1f5eGNONkU0R0kRqDcIJO8ROEbAJGfSugHNQGZg884dAiZ4TFzWcotQOClYQFgsIG4mxzbaLLZypM4s+EwebNHDxTLMk7qkiEXO3aoN47M4u0Ux9A/d8qmIvMlMeGj7HpcpFk/JNKSDqTjiRi3M0JXnLtWBMbbpjkSO7OO4uO4pVkUuWpVP+gDm6vrLLZo84wtyxdYrZnauTmLCW7CP4nsHLg1tdlTMmCEuF/RcO1w+3F6G3Hv8rKo/uV8Rx+e9UDsJK5Sf2+Skxn6qjHBc2AboH0VgNiLQhLJloGYIaxtM+5ySEeWi3EA1KDYRKbQU23fEClWR7PSMTHB7JOYbM6nv9aAz4Js6siiY0BwUUzvqwPeBEB+US3yPhn+oA2HTHisny823pukQrdFuZMaI1WIld03zJ/0bb7xh9Q0o5/neDlij18EMNTZZdeXVRb1cWalnMWOGbyZhYstYRJ8ijC6V1Wzz49tbjNvqiHs04d2S6uJruCJQmwgkGUFtFqh5KwKVigB6oS233NIaQ6CrCvVVhKEbQoeAKSmWcvGHCisVF21X/Ucg+fXR+l9traEiUP8QYGHHIg6ST51YJXFYSxT2nALPPPNM+yXTMEzdisDsREBPBLMTfS27ohBA/IYYFIshTKr51Df/4xvxFWJKzEj5T2qIVwcOHGg/GVJRAGhjGiwCyggabNdpxesjAujTuL3NyYDvX8EUnG4G/Qzm1vxPhpTOrD62R+vUOBBQRtA4+llbqQgoAopAQQSqvFBWMJUGKAKKgCKgCFQMAsoIKqYrtSGKgCKgCJSHgDKC8nDTVIqAIqAIVAwCyggqpiu1IYqAIqAIlIeAMoLycNNUioAioAhUDALKCCqmK7UhioAioAiUh4AygvJw01SKgCKgCFQMAsoIKqYrtSGKgCKgCJSHgDKC8nDTVIqAIqAIVAwCyggqpiu1IYqAIqAIlIeAMoLycNNUioAioAhUDALKCCqmK7UhioAioAiUh4AygvJw01SKgCKgCFQMAsoIKqYrtSGKgCKgCJSHgDKC8nDTVIqAIqAIVAwCyggqpiu1IYqAIqAIlIeAMoLycNNUioAioAhUDALKCCqmK7UhioAioAiUh4AygvJw01SKgCKgCFQMAsoIKqYrtSGKgCKgCJSHgDKC8nDTVIqAIqAIVAwCyggqpiu1IYqAIqAIlIdAs1Sy4cM/Ny+++Ib5448/UsHqpwhUDAJNmzY1W2+9sWnbduW8Nk2Z8rUZPHioGTVqfF5YQ/NYaaUWpkOH9mappRZvaFXX+tYBAklGABPo0mV3s/DCC9ZBFbQIRWD2ITB9+gxz77198xgBTOD++/uZjTZaVxbQdU2TJrOvjjUtOZczZsyY8bY9+++/izKDmgJagemToiFOAsoEKrC3tUl5CDDOUydfTgIwgRVXbNGgmQANhonRDtpDu5QUgRiBJCOII+m7ItDYEEAc1LJli4pqNu2pBDFXRXVKPWmMMoJ60hFajfqHQEMWB6XQrLT2pNqofuUhoIygPNw0lSKgCCgCFYNAUllcMa3ThigCtYTA0089aQa+OtB8+eWXpl27duaAAzqb5ZZbvpZKK5ztUUcdIfL/FU337qcVjqQhikA1COiJoBqANFgRiBG47LJLTbdDDrLea6+9tnnhhefMFltsakaPHh1HrfX3X3752fzyyy+1Xo4WUNkIKCOo7P7V1s1iBGbOnGluu+0Wc9lll5teva4wJ598qnn22f5mmWWWNX37Ppop7dtvvzFDhrxrfv3114w/L19//bV5++3BYtY52vz5558+fOLECYZ006d/awYNGmR+//13G0ac4cM/Np9++on384nE8dNPP9myOKEoKQKlIqCioVIR0/iNHoHvv//eTJs2zePQrFkz89prb/j3nBjun3LKiea+++71frfeervZddfd7fv1119rLrzwfLPAAgsY8urUaVtz113/M3POOZc59tijTfPmzc3Aga/YuF98MVZOGqPM7rvvYuPiueyyy5qHHnrUrLzyKjbOsGEfiXiqrQ/v0eN0c9JJp9gw/aMIFIOAngiKQUnjKAJ/I8AijTy+V6+eZued/22uu+7/zHvvDTEs/o56977XPPHE47KYv24mT/7aXHHFVebwww+1+oSff/5ZbPkHyyW23mbkyDFmwICX5feCeeedd1xy8/HHw8yrrw4yU6ZMM3PNNZfZb7+9zY477mTGjp1oRowYZdq0WdWcffaZPj7lP/fcADNhwmRz4okny2nl0uQpxCdQhyIQIaCMIAJEXxWB6hBAHPTYY/1M69atzZ133m522GFbs9VWW5hJkybZpI8++ohp0eJf5scff7RMom3b1a3/++8PNfPMM49lAuutt7758MMPzYwZM2zY2LFjfbH779/ZLvZ4jBjxmRUjnX76WWbuuec2Cy20kJwe7jFXX32tjw+ToC4wqT333Mv6jx/f8D+L4RuojlpHQEVDtQ6xFlCJCGyyySaGHyeB11571XTr1lV24peY//u/680bbwyyTT7jjKwlD4pdTgTHH3+MnBiekAtrLc2SSy6VBw8iI0cTJkywziWWWMJ5WWYCQ3G02GL/fD9o4YUXsd653D96BxdPn4pAIQSUERRCRv0VgQQCI0eOlFPAbea00840Cy64oHy+oYnZfPMtrOgGRS+01177mPnmm88qk+MssDCCCbz++ptWxs/nLdq0aRVH8++rrNLGukeN+sLrBCZPnmwoa9111/Px1KEI1AQBFQ3VBD1N2+gQWH755UVR+6A59dQTRcY/Uqx7plvz0aeffsp07LiVxWP77Xcwd999l3n88cfM1KlTZeHvKx96W8wMHfqeadasuY0zbtw40QFMsfJ8FMaFaIUVVpAP4q0uyueTrJgI/cHee+8h4qE7CiVRf0WgZAT0RFAyZJqgMSOAnL5v337miCMOFdFQBw/FoYceJn5H2vedd97FnH/+hebMM0+38n1EPT179jLt269jZs78zey7735yAW1fG/fAA7tYEZHPyDr+2Z/NMccc8tXQh8xxxx1jNttsYxu69dadzHnnXfhXTAkPiROKkiJQKgJNRMb5j7nD36mvueZOc8IJ3UrNS+MrAg0SgdR4x++AA3arsj3ffDNNTgTfiWK4hVXUpiITB7k9C3pI6Aq4G4AIqVhyF8dgRuVSnz6P69wuF7wKTqcnggruXG1a7SKw6KKLGX5VUaHwUNlbVfowrCYMIMxH3YpAjEB2mxKH6rsi0IgRyD8rN2wwKq09Dbs36lftlRHUr/7Q2tQTBPjXjvxXr0oi2kO7lBSBGIEkI+D/uPIv/JQUgUpHgHHOeI+J/+/75ptD5PMO4+WuQBzasN6pP+2gPbRLSRGIEUgqi/Wf18cw6XulIqD/vL5Se1bbVQoCSUZQSgYaVxFQBBQBRaBhI5AUDTXsJmntFQFFQBFQBEpBQBlBKWhpXEVAEVAEKhABZQQV2KnaJEVAEVAESkFAGUEpaGlcRUARUAQqEAFlBBXYqdokRUARUARKQUAZQSloaVxFQBFQBCoQAWUEFdip2iRFQBFQBEpBQBlBKWhpXEVAEVAEKhCB/wf47WR0lcWxEQAAAABJRU5ErkJggg==;" parent="2CYpo4eM78xcHVAUHPCl-27" vertex="1">
                    <mxGeometry x="2.7700000000000102" y="28.997272727272726" width="131.97" height="80" as="geometry"/>
                </mxCell>
                <mxCell id="2CYpo4eM78xcHVAUHPCl-38" style="edgeStyle=orthogonalEdgeStyle;rounded=0;orthogonalLoop=1;jettySize=auto;html=1;exitX=0.25;exitY=1;exitDx=0;exitDy=0;entryX=0.75;entryY=1;entryDx=0;entryDy=0;" parent="2CYpo4eM78xcHVAUHPCl-27" source="2CYpo4eM78xcHVAUHPCl-26" target="2CYpo4eM78xcHVAUHPCl-26" edge="1">
                    <mxGeometry relative="1" as="geometry"/>
                </mxCell>
                <mxCell id="2CYpo4eM78xcHVAUHPCl-39" value="3" style="ellipse;whiteSpace=wrap;html=1;aspect=fixed;fillColor=#f8cecc;strokeColor=#b85450;fontColor=#FF0000;" parent="2CYpo4eM78xcHVAUHPCl-27" vertex="1">
                    <mxGeometry x="17" y="112" width="20" height="20" as="geometry"/>
                </mxCell>
            </root>
        </mxGraphModel>
    </diagram>
</mxfile>